<?xml version="1.0" encoding="UTF-8"?>
<!DOCTYPE svg PUBLIC "-//W3C//DTD SVG 1.1//EN" "http://www.w3.org/Graphics/SVG/1.1/DTD/svg11.dtd">
<!-- Creator: CorelDRAW 2020 (64-Bit) -->
<svg xmlns="http://www.w3.org/2000/svg" xml:space="preserve" width="127.964mm" height="75.7825mm" version="1.1" style="shape-rendering:geometricPrecision; text-rendering:geometricPrecision; image-rendering:optimizeQuality; fill-rule:evenodd; clip-rule:evenodd"
viewBox="0 0 7005.73 4148.93"
 xmlns:xlink="http://www.w3.org/1999/xlink"
 xmlns:xodm="http://www.corel.com/coreldraw/odm/2003">
 <defs>
  <style type="text/css">
   <![CDATA[
    .fil30 {fill:#00AD4D}
    .fil4 {fill:#01AB4E}
    .fil3 {fill:#025E31}
    .fil15 {fill:#02AB4B}
    .fil13 {fill:#03AB52}
    .fil2 {fill:#045D33}
    .fil6 {fill:#04A54C}
    .fil26 {fill:#050505}
    .fil16 {fill:#074DA3}
    .fil14 {fill:#094C9A}
    .fil9 {fill:#09A74B}
    .fil18 {fill:#0AAA4E}
    .fil7 {fill:#0CA453}
    .fil29 {fill:#0F4E95}
    .fil8 {fill:#13A556}
    .fil36 {fill:#205637}
    .fil27 {fill:#2C2D87}
    .fil38 {fill:#2C8E51}
    .fil12 {fill:#2E328D}
    .fil39 {fill:#5CC78E}
    .fil31 {fill:#640204}
    .fil0 {fill:#660102}
    .fil33 {fill:#66050A}
    .fil41 {fill:#729CCC}
    .fil37 {fill:#8C514C}
    .fil43 {fill:#9395CA}
    .fil42 {fill:#93B4E7}
    .fil11 {fill:#A6CD3C}
    .fil23 {fill:#A7C946}
    .fil28 {fill:#B12F33}
    .fil25 {fill:#D08755}
    .fil35 {fill:#D9233B}
    .fil40 {fill:#E4DA71}
    .fil24 {fill:#E51C3B}
    .fil20 {fill:#E60688}
    .fil22 {fill:#E7232C}
    .fil1 {fill:#E91B39}
    .fil5 {fill:#EC1B25}
    .fil19 {fill:#ED5C2A}
    .fil21 {fill:#EF712D}
    .fil34 {fill:#F3FDFB}
    .fil32 {fill:#F6FFFA}
    .fil17 {fill:#FCCB08}
    .fil10 {fill:#FEEF07}
   ]]>
  </style>
 </defs>
 <g id="Capa_x0020_1">
  <metadata id="CorelCorpID_0Corel-Layer"/>
  <g id="_2945286665872">
   <path class="fil0" d="M3292.99 2652.55c26.96,-120.54 87.94,-210.1 229.3,-206.39 158.24,4.15 163.24,95.7 214.88,203.4 279.31,-40.87 420.26,119.97 228.79,389.35 201.28,292 21.32,431.64 -228.79,389.64 -52.26,111.71 -55.3,206.57 -232.07,201.42 -137.44,-4 -188.47,-83.57 -213.12,-203.94 -281.04,50.99 -421.15,-116.43 -231.69,-387.13 -51.46,-72.28 -138.67,-161.11 -63.6,-295.24 57.61,-102.92 165.77,-115.57 296.29,-91.12zm-107.54 -194l-106.22 -16.02c-439.84,-27.66 -450.4,496.88 -228.07,571.37 35.56,41.88 28.54,-66.32 29.96,55.57 -12.31,2.13 -45.22,11.18 -50.32,13.56l-28.03 20.21c-2.89,-4.46 -8.79,8.82 -13.51,12.86 -69.08,46.38 -100.71,187.85 -67.25,299.49 32.55,108.62 105.23,171.02 208.44,205l87.36 18.08 172.83 -35.78c23.85,187.56 129.21,321.83 334.08,315.82 192.21,-5.64 287.25,-138.01 310.68,-315.7l152.11 37.89 99.54 -15.63c113.04,-35.89 193.78,-112.28 221.29,-227.1 37.99,-158.54 -28.15,-226.19 -84.08,-313.23l-80.99 -9.51c0,-132.54 -7.17,-37.11 31.67,-66.46 237.81,-74.54 199.73,-601.92 -244.9,-564.82 -11.3,12.59 -1.32,7.04 -41.38,15.3 -38.77,7.99 12.5,2.72 -46.55,-0.23 -58.96,-170.65 -113.81,-304.09 -337.22,-299.53 -202.25,4.13 -264.1,130.26 -319.44,298.85z"/>
   <path class="fil1" d="M3454.76 2805.91c314.12,-87.56 425.44,382.06 132.12,468.7 -309,91.26 -471.36,-374.13 -132.12,-468.7zm-161.77 -153.36c-130.52,-24.45 -238.68,-11.8 -296.29,91.12 -75.08,134.13 12.13,222.96 63.6,295.24 -189.46,270.7 -49.35,438.11 231.69,387.13 24.64,120.37 75.68,199.93 213.12,203.94 176.76,5.15 179.81,-89.71 232.07,-201.42 250.1,42 430.07,-97.64 228.79,-389.64 191.48,-269.38 50.53,-430.22 -228.79,-389.35 -51.64,-107.7 -56.64,-199.25 -214.88,-203.4 -141.36,-3.71 -202.34,85.86 -229.3,206.39z"/>
   <path class="fil1" d="M4556.58 414.82c-38.94,-19.59 -23.37,7.2 -44.1,-29.49 -78.16,-1.21 -166.98,-78.21 -284.85,13.76 -40.43,31.55 -50.91,58.57 -67.86,122.55 -29.34,110.74 22.36,80.23 -102.49,108.27 -47.01,66.23 -121.65,77.98 -107.39,225.8 31.33,171.24 69.23,117.77 135.38,190.16l266.29 3.87c18.05,-34.56 21.47,-60.12 25.59,-116.38 0.99,-13.51 0.15,-39.22 3.98,-51.87 30.77,-101.81 -3.41,-10.58 37.92,-55.68 31.46,-134.22 236.88,-197.97 363.54,-68.66 165.12,168.56 -13.53,312.68 -70.66,406.35 86.77,60.66 204.38,220.38 368.17,183.72 176.69,-39.55 202.27,-244.64 109.75,-375.68 136.27,-294.8 14.27,-320.27 -160.18,-404.21l-42.93 -0.48c-82.58,-170.39 -21.71,-98.33 -144.93,-226.7l-35.31 -4.14c-151.42,-11.11 -160.31,26.3 -249.94,78.8z"/>
   <path class="fil1" d="M2040.16 567.06l-42.29 1.6c-113.11,49.71 -247.42,66.43 -218.67,266.74 17.54,122.12 78.33,71.87 36.68,165.86 -41.97,94.72 -58.71,102.68 -18.38,219.11 124.46,255.98 399.84,79.94 492.2,-51.1 -38.75,-93.87 -85.78,-81.43 -91.59,-188.27 -2.53,-0.65 -72.83,29.7 -21.8,-138.15 35.67,-117.33 174.01,-189.49 266.3,-169.31 94.94,20.77 50.29,19.46 68.85,54.94 158.89,47.35 93.17,223.45 136,316.84 190.93,19.93 345.54,23.88 410.65,-115.53 108.24,-231.76 -154.51,-321.11 -163.65,-331.07 -41.38,-45.1 18.06,-103.56 -131.71,-220.98 -30.77,-24.13 -12.97,-6.3 -36.02,-29.7 -47.19,7.14 -73.33,2.12 -124.9,12.2 -36.7,7.17 -69.28,23.39 -87.32,27.01 -22.49,33.43 19.71,31.43 -44.31,24.52 -84.78,-29.87 -103.97,-89.46 -252.82,-76.61l-29.18 -0.36c-39.3,51.22 -60.45,47 -94.71,95.5 -34.38,48.66 -26.82,78.1 -53.35,136.75z"/>
   <path class="fil2" d="M185.51 780.44c87.57,16.05 181.02,48.33 281.34,14.57 120.91,-40.68 100.56,-86.19 179.46,-132.7 140.51,-526.47 -522.52,-530.08 -393.11,-131.7 27.67,-30.61 86.69,-207.42 222.16,-147.62 181.75,125.97 21.41,364.72 -193.52,296.68 -156.3,-49.48 -207.52,-274.11 -108.33,-409.96 176.34,-241.53 598.94,-211.13 707.07,249.7l85.55 314.78 41.33 -176.15c-4.62,-728.35 -857.84,-854.37 -992.09,-334.56 -73.63,285.08 140.15,415.51 170.13,456.94z"/>
   <path class="fil2" d="M6003.52 611.91l-3.23 54.92c-1.84,68.41 1.42,114.86 37.26,165.29 14.83,-91.54 55.62,-280.69 93.13,-331.99 35.47,-152.48 144.53,-310.54 276.53,-358.02 475.22,-170.91 636.81,508.27 268.55,547.96 -206.48,22.25 -312.97,-215.87 -150.79,-300.88 106.28,-53.25 160.28,45.53 184.34,84.69 27.38,44.57 -4.57,15.25 41.86,55.14 75.72,-228.69 -116.33,-352.01 -297.19,-243.15 -228.97,137.83 -74.96,380.05 -49.19,444.31 62.28,15.92 20.54,8.4 83.77,42.26 40.09,21.47 67.48,32.21 114.55,37.29 105.61,11.4 162.63,-14.39 241.82,-57.35 93.1,-95.98 203.33,-216.7 140.02,-438.97 -40.97,-143.84 -172.97,-264.96 -336.47,-301.33 -358.28,-79.69 -636.07,281.98 -644.95,599.83z"/>
   <path class="fil3" d="M4005.11 2211.09c34.34,-13.6 313.94,-210.85 612.18,-340.78 113.86,-49.61 599.2,-233.55 700.54,-183.78l-3.82 -37.6c-267.22,-148.19 -323.71,-120.23 -513.5,0.06 -416.33,-136.67 -288.37,84.37 -452.44,113.68l113.28 -322.8c-3.93,-88.11 7.25,-31.57 -33.72,-45.03l-131.93 348.67c-256.88,26.65 -389.52,193.28 -290.6,467.58z"/>
   <path class="fil3" d="M2574.06 1454.36c11.97,62.64 27.93,100.16 55.24,161.48 73.58,165.28 39.85,125.96 25.2,147.86 -44.09,-23.04 -13.91,-3.05 -46.68,-49.64 -124.64,-177.2 -225.08,-103.18 -404.29,-63.45 -60.76,-91.84 -119.3,-103.53 -264.27,-97.4 -80.4,25.35 -169.88,73.5 -238.52,83.6l-1.8 36.37c366.49,17.21 927.66,261.79 1247.12,493.7l78.88 47.91c20.27,-81.96 40.56,-173.99 16.93,-258.71 -28.73,-102.95 -83.91,-103.46 -131.6,-182.44 -39.35,-3.51 -47.63,-4.09 -92.68,-15.58l-95.32 -35.29 -122.19 -331.25c-35.13,24.54 -50.48,-44.89 -26.01,62.83z"/>
   <path class="fil4" d="M2982.23 2263.89l5.43 -32.15 37.22 10.09 0.05 -27.04 -78.88 -47.91c-319.46,-231.91 -880.63,-476.49 -1247.12,-493.7 44.89,183.53 179.36,235.78 387.76,213.97 54.33,202.95 105.48,193.88 335.8,193.11 147.22,348 325.81,203.97 559.74,183.63z"/>
   <path class="fil4" d="M4005.11 2211.09l3.66 32.5c53.81,-11.29 23.25,-12.44 35.22,17.75 291.08,55.91 411.66,127.18 563.19,-182.04 306.02,7.86 222.69,-13.81 348,-187.26l154.76 -4.04c130.82,-31.54 172.9,-71.53 207.89,-201.47 -101.33,-49.77 -586.67,134.17 -700.54,183.78 -298.24,129.93 -577.84,327.18 -612.18,340.78z"/>
   <path class="fil5" d="M3417.47 1941.08c48.86,31.34 56.26,50.21 115.26,80.78l94.05 -130.94c305.22,-299.01 227.81,-512.27 35.48,-493.9 -99.53,9.5 -100.17,67.5 -152.92,128.96 -140.65,-260.98 -334.52,-80.07 -323.53,40.81 12.27,135.06 207.26,271.02 231.67,374.29z"/>
   <path class="fil3" d="M6453.86 1835.74c-27.54,-323.45 109.61,-522.08 272.98,-643.18 -57.19,130.79 -76.62,161.37 -110.85,333.79 -25.82,130.05 -67.15,271.51 -162.13,309.4zm-100.65 -323.11c-4.92,199.74 15.41,246.24 68.65,412.55 78.65,-7 -47.53,-1.51 77.45,-29.71 108.51,-39.62 295.12,-200.84 305.28,-344.25 25.1,-354.38 -65.02,-303.66 191.16,-501.21 -363.32,-34.32 -588.15,145.91 -642.54,462.62z"/>
   <path class="fil3" d="M547.51 1841.45c-86.46,-56.01 -132.97,-169.27 -158.34,-307.67 -29.19,-159.16 -55.46,-206.94 -107.32,-331.23 161.31,95.57 309.51,355.64 265.66,638.9zm-39.52 65.92c6.12,2 35.51,11.31 39.47,10.57 2.49,-0.46 9.27,-2.46 11.71,-3.21 3.88,-1.2 17.05,-11.65 22.07,-15.67l65.05 -193.41c11.51,-185.65 4.86,-308.9 -88.22,-441.39 -59.43,-70.74 -102.97,-117.25 -212.32,-169.31 -84.91,-40.43 -277.08,-90.34 -328.43,-15.12 74.03,15.76 136.05,70.5 168.31,156.23 38.75,102.98 5.9,205.69 13.46,315.68 11.96,173.94 186.94,279.99 308.9,355.63z"/>
   <path class="fil6" d="M5963.32 1257.73c-8.46,116.97 -20.49,256.98 -76.06,335.1l-0.19 15.93c-11.22,91.51 -73.52,242.3 -112.85,308.87l12.67 36.7 54.97 -76.69 91.42 -248.47 24.18 -82.27 41.04 -253.32c0.67,-9.64 3.1,-44.82 4.52,-51.48 16.24,-76.37 -0.73,-9.44 18.76,-43.38 -18.59,-117.47 2.85,-252.58 15.76,-366.61 -35.84,-50.43 -39.1,-96.88 -37.26,-165.29l-41.31 -45.15c-149.11,-446.55 -702.7,-239.52 -482.28,21.74 96.86,114.81 257.59,27.82 391.56,169.26 105.59,111.49 140.09,246.57 95.06,445.04z"/>
   <path class="fil7" d="M6421.86 1925.19c-18.59,56.86 -47.71,43.44 -95.17,88.38 -24.81,23.5 -64.85,84.73 -81.6,131.66 -48.97,137.24 -7.01,226.6 59.6,312.65l103.52 65.06c4.04,2.66 10.82,6.81 16.22,10.25 324.74,104.26 479.57,-382.78 128.8,-389.06 35.38,38.42 161,101.45 100.04,234.07 -40.18,87.42 -167.99,126.24 -269.05,43.9 -170.13,-138.6 -47.09,-425.13 194.99,-426.41 407.39,-2.16 533.99,663.11 -94.93,773.16l22.86 81.21c124.52,-33.7 185.38,-65.19 284.64,-99.52 13.06,-22.91 293.63,-217.8 191.7,-539.26 -59.63,-188.06 -207.93,-276.01 -385.32,-294.75l-98.84 -21.05c-124.98,28.2 1.2,22.71 -77.45,29.71z"/>
   <path class="fil8" d="M392.57 2829.31l91.96 16.65c29.61,-38.31 19.51,-6.85 30.13,-77.81 -622.54,-129.63 -496.14,-763.01 -102.33,-772.61 236.83,-5.78 371.96,271.42 223.5,416.69 -123.51,120.85 -372.01,23.39 -286.7,-168.95 23.1,-52.09 16.24,-26.55 44.56,-54.38l50.73 -48.92c-298.97,27.61 -279.49,432.04 144.21,400.54 41.3,-37.7 37.75,-21.65 68.12,-49.34 5.86,-5.34 22.93,-27.11 26.79,-30.75 22.91,-21.55 12.59,-12.67 38.25,-29.37 93.66,-123.78 65.13,-301.86 -44.09,-410.89 -61.44,-61.33 -73.19,-36.78 -96.46,-121.12 -5.02,4.02 -18.2,14.48 -22.07,15.67 -2.43,0.75 -9.22,2.75 -11.71,3.21 -3.95,0.74 -33.35,-8.57 -39.47,-10.57 -163.31,21.6 -230.43,-0.59 -351.67,102.96 -201.21,171.86 -202.22,466.92 -37.21,644.54 105.21,113.26 135.57,99.05 273.47,174.44z"/>
   <path class="fil9" d="M1266.87 471.2c79.65,-0.95 99.54,-7.25 166.97,19.96l18.55 73.29c2.01,13.88 1.54,43.81 2.21,59.32l-187.74 38.55 0 -191.11zm-259.41 186.85l-41.33 176.15 -1.59 105.93c46.51,68.04 20.03,238.4 32.7,335.07 12.99,99.15 42.37,198.12 50.55,296.15l23.39 57.83 112.8 303.61c31.65,-1.07 24.15,-8.76 22.86,22.71l41.17 -2.81 -5.23 -16.21 -35.88 -45.73 -82.97 -235.39 -30.64 -80.01c-26.07,-151.57 -101.45,-440 -58.74,-598 18.21,-67.36 88.33,-166.05 131.33,-198.83 71.49,-54.49 166.65,-61.63 274.84,-71.12 31.98,-23.55 129.7,-47.76 127.44,-180.23 -2.58,-151.95 -217.15,-266.67 -415.26,-70.89 -69.64,68.82 -92.05,149.32 -145.45,201.76z"/>
   <path class="fil10" d="M3454.76 2805.91c-339.24,94.57 -176.87,559.96 132.12,468.7 293.32,-86.63 181.99,-556.25 -132.12,-468.7z"/>
   <path class="fil9" d="M2466.68 830.31c42.28,158.47 -76.4,194.87 -139.79,120.66 -57.88,-67.77 1.97,-170.94 139.79,-120.66zm-268.57 150.7l36.28 43.95c15.55,22.77 13.51,23.03 29.96,46.21 24.16,34.05 36.66,49.45 66.7,87.82 38.42,57.59 77.9,94.66 128.62,142.48 81.88,77.2 58.37,47.82 114.38,152.89 -24.47,-107.73 -9.12,-38.3 26.01,-62.83 -10.54,-72.62 0.54,-105.95 7.93,-173.16 7.54,-68.58 -1.72,-140.3 39.46,-173.03 -42.83,-93.39 22.88,-269.5 -136,-316.84 -93.16,-21.38 -167.89,-31.5 -243.84,30.59 -77.5,63.36 -57.35,130.45 -69.51,221.93z"/>
   <path class="fil11" d="M4839.09 3853.37c52.47,60.28 153.37,73.91 167.64,184.97 34.14,24.32 24.27,-39.19 32.41,48.81 40.97,-26.58 21.67,20.68 33.66,-61.77 1.82,-12.53 -4.75,-80.11 -5.66,-98.72 -11.27,-186.12 -200.68,-437.91 -397.96,-417.7 -99.38,10.18 -202.84,101.83 -151.34,234.85 43.35,111.95 172.28,95.33 321.24,109.57z"/>
   <path class="fil2" d="M2636.21 3925.45c50.48,-155.61 133.2,-224.63 332.73,-244.42 -73.17,119.61 -200.87,170.85 -332.73,244.42zm-142.76 -128.03c-13.64,90.66 -79.27,206.56 -33.62,316.96 16.53,20.8 2.37,22.07 73.56,-14.38 242.32,-124.08 474.37,-41.53 484.43,-461.32l-87.36 -18.08c-61.04,28.71 -179.2,23.8 -258.31,54.09 -111.82,42.82 -100.72,67.03 -178.71,122.73z"/>
   <path class="fil3" d="M4369.65 3925.22c-151.43,-86.74 -248.74,-103.64 -333.27,-240.68 198.25,10.39 271.3,101.17 333.27,240.68zm-382.14 -284.32c-5.28,456.07 331.2,331.96 426.44,437.79l130.23 58.39c35.84,-184.03 4.59,-294.54 -101.7,-392.72 -140.01,-129.33 -204.69,-65.55 -355.42,-119.09l-99.54 15.63z"/>
   <path class="fil12" d="M5660.25 3632.77l91.76 -3.62c88.4,-45.14 258.34,-85.12 322.54,-168.33l15.33 -36.68c-58.76,-65.6 -131.43,-101.87 -217.15,-142.67 -11.2,-5.33 -28.94,-12.78 -40.33,-19.2 -5.38,-3.03 -21.71,-13.35 -26.28,-16.34l-25.52 -19.16c-79.02,2.52 -144.16,-9.57 -172.02,60.2 -27.3,68.36 11.83,111.8 41.65,138.37 -78.99,85.36 -60.54,131.34 10.02,207.44z"/>
   <path class="fil11" d="M3055.36 284.52c292.03,47.21 315.33,27.2 439.89,270.24 50.59,-5.04 13,4.9 30.74,-25.17 -18.76,-26.57 -10.04,1.62 -18.84,-45.08 -4.97,-26.38 -4.68,-24.9 -3.7,-52.3 1.14,-31.86 12.13,-66.48 17.92,-98.15l-28.87 28.1c-99.16,-491.9 -591.27,-402.32 -493.26,-160.29l56.12 82.64z"/>
   <path class="fil13" d="M1534.1 3864.24c262.26,4.89 243.73,115.39 359.63,254.97 7.74,-175.46 -11.23,-196.94 -54.82,-346 -53.35,-30.99 -129.7,-262.19 -351.85,-201.42 -155.71,42.59 -151.7,271.21 47.03,292.45z"/>
   <path class="fil4" d="M5112.61 3968.72l12.62 143.72c52.21,-115.11 121.74,-220.44 257,-241.31 85.56,-13.2 144.57,3.19 200.02,-51.42 139.43,-137.32 -79.72,-387.03 -309.81,-174.04 -84.68,78.39 -144.05,179.52 -159.83,323.06z"/>
   <path class="fil14" d="M6507.13 2850.05l-22.86 -81.21c-96.3,-36.24 -123.82,-45.18 -182.48,32.31l-51.36 -55.58 -103.36 1.08c-80.64,114.46 -53.36,132.63 0.66,259.23 35.89,84.1 81.31,177.69 135.59,220.98l20.15 -233.11c1.41,-3.45 4.43,-9.6 7.73,-13.67l1.57 249.72c79.26,-51.05 167.39,-251.82 194.37,-379.75z"/>
   <path class="fil15" d="M3521.37 334.08c-5.79,31.67 -16.79,66.29 -17.92,98.15 -0.99,27.39 -1.28,25.91 3.7,52.3 8.8,46.7 0.08,18.51 18.84,45.08 47.28,-99.97 81.66,-153.95 172.42,-195.42 56.89,-68.1 191.52,0.58 271.83,-76.7 89.55,-86.17 34.65,-211.75 -50.15,-243.22 -201.41,-74.73 -367.39,161.09 -398.71,319.82z"/>
   <path class="fil14" d="M6892.17 3039.01c-35.93,-37.84 -4.07,-15.26 -54.33,-41.5l-90.24 2.37 0.56 -69.22 13.32 -30.19c-210.94,-164.3 -302.76,162.98 -326.55,371.51 51.59,-30.38 57.29,-39.91 100.09,-84.78 42.49,-44.54 39.12,-57.87 94.69,-67.55l-172.42 185.01c98.99,-4.18 185.29,-29.63 266.75,-61.93 126.63,-50.2 174.78,-51.22 168.13,-203.72z"/>
   <path class="fil12" d="M6474.72 4112.95c71.69,-118.93 -91.16,-413.16 -161.86,-456.28l-2.9 249.81c-3.14,-3.83 -6.07,-9.77 -7.33,-12.92 -45.57,-113.43 14.11,-170.54 -44.53,-235.98 -25.17,71.21 -114.56,194.54 -149.56,304.22 -54.47,170.73 110.46,248.8 183.03,123.16 47.96,49.59 86.98,96.28 183.15,27.99z"/>
   <path class="fil12" d="M1202.69 3625.68c109.49,-0.66 94.85,24.04 197.04,-37.1 8.65,-78.13 15.52,-68.53 -27.5,-139.83l-19.02 -23.42c83.13,-105.79 60.33,-112.87 -13.49,-199.49 -117.22,1.71 -308.56,86.04 -397.78,169.77 -24.05,22.57 -11.38,8.47 -30.49,33.9 78.2,0.42 200.45,-12.78 251.32,23.99l-235.23 3.55c100.17,110.75 201.82,94.36 275.16,168.63z"/>
   <path class="fil12" d="M501.35 4082.16c88.95,75.46 95.48,97.19 200.46,11.22l25 19.22c57.23,35.8 51.76,37.89 159.43,13.65l19.97 -124.96c-60.35,-129.46 -93.61,-259.3 -185.47,-344.58 -3.9,76.2 11.26,197.49 -26.46,245.72l-8.44 -241.9c-88.12,61.88 -182.29,285.66 -184.5,421.62z"/>
   <path class="fil12" d="M6614.47 4050.94c122.24,-31.12 132.65,-16.79 142.91,-147.89l123.19 -25.19 14.97 -140.17c-105.52,-62.64 -263.01,-146.23 -431.12,-159.04 48.33,68.56 133.73,123.68 166.47,190.88 -75.44,-20.32 -81.38,-74.95 -154.72,-128.38 -32.07,-23.37 2.06,-3.57 -43.9,-26.98 25.73,181.56 89.2,330.43 182.19,436.77z"/>
   <path class="fil12" d="M195.27 3643.87c79.37,-74.02 187.45,-71.74 291.74,-184.71l-241.89 -14.51c49.77,-29.39 167.97,-13.3 242.39,-18.15 -65.44,-69.26 -162.81,-112.24 -255.82,-149.43 -29.42,-11.77 -30.69,-10.66 -55.99,-24.03 -42.64,-22.55 -19.81,-10.01 -39.14,-26.13 -149.01,52.46 -169.94,89.5 -83.33,217.74 -110.97,176.06 -31.23,191.13 142.04,199.22z"/>
   <path class="fil12" d="M1020.17 4048.23c85.59,-23.88 80.69,-5.82 122.46,-68.59l16.61 -93.42 65.44 3.81c211.61,-95.53 -13.33,-197.41 -58.96,-238.85l-298.42 -76.52c25.54,51.74 7.12,22.64 44.25,66.61 41.07,48.63 80.87,63.76 124.6,134 -90.13,-36.88 -114.75,-104.12 -198.76,-167.67 13.86,100.6 32.66,162.92 67.02,252.43 13.08,34.08 31.6,80.94 46.86,106.88 56.89,96.73 44.02,93.78 56.99,69.87 1.89,-3.49 8.03,7.54 11.91,11.46z"/>
   <path class="fil14" d="M255.27 2917.11l3.86 83.22 -85.95 -2.23c-95.85,56.55 -84.32,134.66 -12.61,200.74 105.15,35.82 258.31,109.17 379.06,105.45 -55.12,-53.99 -135.15,-116.89 -167.02,-190.93 88.02,49.56 102.3,118.64 196.9,163.8 -23.95,-177.32 -79.31,-308.16 -177.78,-438.94 -90,20.09 -96.26,1.93 -136.44,78.88z"/>
   <path class="fil14" d="M5786.63 3209.78c119.63,29.51 209.13,85.47 347.5,98.43l-170.23 -186.37c97.36,13.21 80.92,85.49 201.04,149.08 -13.16,-132.31 -75.91,-384.25 -204.31,-420.72 -102.76,-5.19 -111.95,35.17 -113.92,138.39 -82.96,-1.28 -136.09,3.61 -140.44,89.62 -4.36,86.19 55.4,88.13 80.36,131.58z"/>
   <path class="fil12" d="M6977.9 3283.19c-42.38,-37.05 -42.54,-36.97 -106.4,-43.55 -59.31,30.19 -245.91,89.46 -314.48,144.52 -62.43,50.13 -10.37,2.18 -43.61,45.95 162.52,-1.88 194.22,-8.13 242.94,14.55l-241.65 12.57c44.09,56.34 74.8,67.6 143.88,101.9 430.33,213.66 347.03,-60.46 289.67,-114.47 43.29,-39.29 76.63,-80.53 29.65,-161.47z"/>
   <path class="fil12" d="M227.88 3659.8c-56.29,44.1 -95.38,23.66 -116.03,103.95 -17.98,69.91 19.57,98.71 63.11,128.16l86.34 -4.12 -3.47 76.29c43.79,136.06 130.38,50.53 190.37,40.8 39.29,-128.82 105.48,-246.53 123.01,-397.56l-107.14 83.28c-33.64,35.38 -46.81,54.69 -92.59,84.37 26.55,-75.45 111.32,-141.58 167.47,-190.49 -105.61,-8.34 -209.54,51.73 -311.07,75.32z"/>
   <path class="fil14" d="M1254.4 3191.23c40.49,-51.52 41.33,-116.31 17.37,-187.73l-34.29 1.22 -88.68 -6.22 -9.32 -86.17c-99.63,-228.25 -276.16,106.58 -303.32,367.94 83.19,-64.49 108.71,-131.06 198.4,-167.5 -60.52,88.24 -124.14,103.68 -164.86,195.99 167.84,-21.54 241.88,-74.15 384.71,-117.53z"/>
   <path class="fil9" d="M4681.91 821.33c38.19,64.6 41.78,81.6 3.86,149.35 -124.33,18.95 -154.08,-40.09 -124.88,-148.32l121.02 -1.02zm-262.85 4.49l-11.63 231.56c-1.82,72.84 0.27,191.11 33.11,237.11 33.1,-123.27 -0.42,-220.76 -7.26,-321.97 198.9,0.66 137.48,57.82 218.67,100.75l32.48 14.22c-15.91,18.58 -45.84,29.17 -28.58,57.56l22.19 20.92c2.85,2.86 10.05,7.2 14.22,11.7l19.69 -14.15c57.13,-93.67 235.78,-237.79 70.66,-406.35 -126.66,-129.31 -332.08,-65.56 -363.54,68.66z"/>
   <path class="fil11" d="M2151.73 3578.89c-4.85,133.35 -15.82,47.31 -31.27,90.25 -1.68,4.65 -4.48,9.54 -5.75,14.27 -19.43,72.61 16.98,106.62 17.88,108.93 87.35,32.27 201.32,15.01 309.84,-9.28 0.04,-0.01 28.67,-7.45 37.57,-10.04 79.97,-314.48 -286.63,-307.37 -328.27,-194.12z"/>
   <path class="fil16" d="M514.66 2768.16c-10.62,70.95 -0.51,39.5 -30.13,77.81 32.14,65.83 51.28,184.69 97.92,212.36l57.82 15.37 17.44 -110.98c99.51,-9.3 82.87,-12.88 97.61,87.09 104.61,-109.02 -25.36,-47.04 102.88,-68.77 116.25,-114.42 27.25,-321.3 -156.38,-187.02 -45.35,-32.1 -67.84,-52.77 -154.57,-46.09l-32.58 20.22z"/>
   <path class="fil11" d="M5841.86 1877.64l-54.97 76.69 1.34 22.09c80.5,-1.28 512.87,114.94 444.37,-190.51 -24.13,-107.61 -136.07,-111.5 -216.02,-43.68l-132.78 137.08c-2.32,1.01 -8.08,2.75 -10.33,3.28 -41.09,9.82 6.8,26.22 -31.6,-4.95z"/>
   <path class="fil11" d="M1457.27 2864.92c62.93,50.58 102.38,132.6 250.55,59.7 64.21,-31.59 171.05,-118.13 192.76,-151.39 -15.41,-16.83 -37.48,-36.85 -50.86,-56.24l-122.28 -6.87c-33.6,-9.76 -88.25,-28.74 -123.19,-33.01 -142.34,-17.39 -165.22,53.11 -146.98,187.81z"/>
   <path class="fil11" d="M787.98 1725.66c-56.75,333.97 112.46,283.95 420.27,246.4l-1.41 -16.55c1.29,-31.47 8.79,-23.78 -22.86,-22.71 -133.22,-101.08 -175.13,-282.22 -396,-207.14z"/>
   <path class="fil3" d="M4452.27 3048l-6.59 32.3c38.27,78.11 124.41,219.79 188.59,244.01 146.89,55.43 245.05,-45.87 224.54,-195.62 -125.32,-87.43 -239.89,-69.92 -406.54,-80.69z"/>
   <path class="fil11" d="M5168.02 2723.36l-64.08 49.95c25.75,40.39 181.54,159.28 250.18,175.58 127.85,30.36 218.36,-74.38 193.26,-214.74 -130.05,-143.43 -260.59,14.96 -379.35,-10.78z"/>
   <path class="fil2" d="M2557.44 3069.1l-21.95 -15.95c-58.03,-1.84 -256,7.51 -306,22.91 -89.81,27.66 -125.73,134.54 -55.16,209.92 165.74,177.03 338.64,-99.39 383.1,-216.88z"/>
   <path class="fil2" d="M2210.37 2955.83c-31.62,-33.42 35.75,8.87 -36.32,-31.37 -164.07,-6.99 -236.12,-46.08 -380.15,7.19 -31.86,117.7 -2.49,257.39 162.23,241.64 105.07,-10.05 211.58,-148.57 254.24,-217.46z"/>
   <path class="fil6" d="M5404.21 2518.51l-15.06 33.19c150.5,99.5 191.83,123.23 382.48,110.84 46.71,-77.67 140.25,-263.44 -44.73,-272.89 -72.45,-3.7 -242.66,98.85 -322.69,128.86z"/>
   <path class="fil2" d="M4865.72 2922.17l-84.42 19.31c22.49,47.31 162.73,202.75 223.34,223.71 129.51,44.77 243.09,-55.43 215.46,-201.2 -87.7,-99.35 -197.66,-56.48 -354.38,-41.81z"/>
   <path class="fil17" d="M3102.54 507.93c-46.75,343.7 239,41.41 393.2,396l30.42 -22.02c-17.14,-25.55 -10.09,-4.25 -19.65,-49.16 -8.14,-38.21 -2.73,8.31 -4,-34.24 -1.28,-42.75 4.71,-39.81 14.91,-71.68 -59.05,52.34 67.58,-47.24 -30.47,19.36 -25.9,-162.61 -137.3,-295.51 -329.69,-276.59 -24.51,32.6 -12.99,29.92 -54.73,38.32z"/>
   <path class="fil18" d="M3538.25 629.95l-20.83 96.89c-10.2,31.86 -16.19,28.93 -14.91,71.68 1.28,42.56 -4.13,-3.96 4,34.24 9.56,44.9 2.51,23.61 19.65,49.16 17.25,-38.09 15.26,-42.89 42.81,-79.24 45.75,-60.37 21.82,-40.29 76.49,-52.73 65.68,-79.78 105.51,-24.06 197.44,-59.46 157.18,-60.52 40.23,-313.92 -161.87,-200.8l-142.79 140.26z"/>
   <path class="fil13" d="M5688.01 2211.14l-56.42 73.39c86.81,30.08 187.08,77.1 291.06,67.24 122.64,-11.63 158.54,-117.93 132.52,-241.09 -142.34,-120.8 -249.4,30.64 -367.16,100.46z"/>
   <path class="fil17" d="M630.45 980.75c-11.63,124.06 -10.01,180.75 85.71,228.41 71.76,35.73 161.01,54.32 261.31,58.57l-26.43 -114.08c-39.69,-43.1 -65.42,-160.18 -110.56,-205.19 -92.68,-92.4 -163.85,-4.29 -210.03,32.29z"/>
   <path class="fil4" d="M1373.09 2281.51l-31.35 -53.08c-111.05,-57.4 -186.58,-191.28 -349.92,-152.89 -91.77,100.3 -64.12,228.05 44.33,265.96 100.61,35.17 255.74,-29.93 336.94,-59.99z"/>
   <path class="fil17" d="M6037.75 1210.87l6.51 39.09 38.97 9.88 205.87 -41.95c29.85,-45.23 90.34,-53.59 93.64,-150.86 2.75,-80.99 -43.63,-147.03 -114.73,-154.79 -128.84,-14.07 -206.2,205.63 -230.25,298.62z"/>
   <path class="fil15" d="M1168.41 2447.92c-6.35,125.79 32.94,230.41 170.01,225.39 74.19,-2.72 220.89,-88.3 272.54,-115.65l-52.37 -58.99c-206.53,-68.71 -197.27,-170.75 -390.18,-50.75z"/>
   <path class="fil11" d="M5957.46 1546.9l-24.18 82.27c80.3,4.51 153.1,1.66 226.24,-11.34 107.1,-19.03 115.45,-26.07 149.57,-105.19 59.45,-53.86 -5.62,-149.16 -28.01,-192.83 -130.14,-14.42 -151.51,24.02 -203.9,96.56 -22.36,30.97 -39.88,60.32 -62.95,93.58 -48.92,70.54 -30.99,72.15 -56.76,36.96z"/>
   <path class="fil11" d="M682.64 1531.76l25.46 44.36c115.33,39.71 212.72,61.43 363.08,53.06l-23.39 -57.83c-15.18,1.03 9.54,27.25 -37.89,-34.89 -18.36,-24.06 -28.55,-40.08 -41.32,-58.45 -209.47,-301.26 -312.86,-151.19 -285.94,53.75z"/>
   <path class="fil12" d="M5748.9 3698.91c-29.65,32.32 -69.2,70.27 -35.63,142.88 31.11,67.27 74.55,44.27 128.43,66.65l5.51 77.11 115.35 -34.33c17.57,-14.64 9.55,6.41 32.32,-33.3l9.45 -26.14c11.7,-99.13 -24.37,-22.23 -24.57,-22.15 15.28,0 41.65,18.45 93.94,0.13l0.21 -57.99c-19.9,-16.98 13.88,-66 -113.48,-25.24 -43.21,-203.11 -21.69,-47.23 -58,-144.16l-153.53 56.55z"/>
   <path class="fil19" d="M1206.9 1890.77l35.88 45.73c116.27,-58.01 265.23,-192.99 252.79,-333.43 -289.93,-205.73 -259.5,188 -270.15,236.49 -8.33,37.9 -6.66,31.45 -18.52,51.21z"/>
   <path class="fil19" d="M1093.29 1575.36l30.64 80.01c-1.96,-70.4 79.89,-79.67 219.49,-177.68 170.5,-119.71 26.83,-178.88 -3.7,-227.12 -261.59,-5.86 -167.06,197.34 -246.43,324.79z"/>
   <path class="fil20" d="M4411.6 2999.22l81.97 -14.37c-11.94,-29.06 -19.8,-0.44 16.35,-40.91 29.35,-32.87 131.73,-93.09 152.63,-162.77 45.87,-152.91 -78.94,-198.21 -194.24,-168.73 -64.36,125.43 -38.37,224.5 -56.72,386.78z"/>
   <path class="fil21" d="M5640.31 1144.76c93.39,30.29 218.92,111.12 323.01,112.97 -19.67,-99.79 -78.51,-274.54 -155.25,-308.36 -65.1,-28.69 -138.1,-2.1 -166.62,32.31 -45.16,54.49 -11.71,122.71 -1.14,163.08z"/>
   <path class="fil20" d="M2554.53 2982.98l29.55 -4.14c2.79,-143.41 27.23,-372.93 -123.02,-379.91 -106.63,27.15 -164.74,104.52 -104.54,214.97 40.6,74.48 120.66,130.8 198.01,169.08z"/>
   <path class="fil20" d="M2222.33 2874.88l35.72 28.46c2.93,-119.1 82.83,-335.13 -14.81,-402.2 -101.44,-93.4 -225.45,38.66 -183.96,162.38 16.93,50.49 143.56,198.96 163.05,211.36z"/>
   <path class="fil19" d="M5731.49 1906.53c16.26,-27.72 -0.45,-9.55 41.16,-20.08 -3.03,-79.01 7.83,-193.29 -21.03,-262.3 -29.24,-69.92 -132.9,-108.36 -209.98,-46.79 -147.85,118.09 129.27,305.59 189.84,329.17z"/>
   <path class="fil22" d="M1613.95 2401.41c4.13,4.95 9.64,6.15 11.62,15.49 1.97,9.32 17.54,24.25 20.54,28.84 24.64,37.65 3.47,14.05 28.97,47.25 46.15,-80.67 231.02,-341.45 73.85,-404.3 -91.72,-36.68 -280.48,37.49 -134.98,312.71z"/>
   <path class="fil23" d="M1980.14 3754.31c-21.49,84.33 -111.47,285.63 -33.2,362.51 6.16,-43.63 -1.87,-21.87 28.85,-74.43 14.08,-24.09 24.13,-36.46 40.02,-57.58 153.96,-204.66 272.15,-108.46 370.64,-150.79 60.45,-25.99 32.56,-15.42 55.99,-50.97 -108.52,24.29 -222.49,41.55 -309.84,9.28 -0.89,-2.31 -37.31,-36.32 -17.88,-108.93 1.27,-4.74 4.07,-9.62 5.75,-14.27 15.45,-42.93 26.42,43.1 31.27,-90.25 -122.77,56.94 -94.81,104.75 -171.59,175.42z"/>
   <path class="fil19" d="M5631.96 1263.08l2.21 -8.79c-50.58,85.83 -83.24,149.3 29.87,226.49 61.28,41.82 152.28,104.62 223.04,127.98l0.19 -15.93c-4.33,-90.91 -14.48,-188.89 -50.36,-266.41 -41.04,-88.67 -96.53,-81.36 -204.94,-63.34z"/>
   <path class="fil24" d="M5053.77 2699.65c29.69,-11.37 33.31,-14.17 58.14,-30.93 52.84,-81.67 120.06,-177.49 90.12,-305.12 -43.58,-48.25 -100.61,-99.94 -189.7,-42.24 -87.73,81.99 -4.99,270.49 41.43,378.29z"/>
   <path class="fil24" d="M1900.82 2683.02c5.89,2.61 21.6,8.34 24.95,8.58 1.92,0.14 9.31,-0.77 11,-0.78 2.97,-0.01 14.11,-7.8 19.22,-11.72 42.43,-97.99 75.57,-201.44 76.77,-316.33 -41.93,-40.89 -49.24,-73.09 -130.43,-63.15 -58.27,7.13 -102.52,58.12 -111.78,107.28 -17.32,91.89 74.85,214.41 110.26,276.12z"/>
   <path class="fil5" d="M1398.13 2158.64c3.74,4.98 9.43,5.97 11.33,14.83 1.82,8.48 8.39,11.02 10.73,14.29 1.2,1.69 24.65,35.64 26.43,38.35 65.26,-84.37 304.33,-297.01 109.72,-391.16 -217.17,-34.89 -181.62,157.21 -158.2,323.69z"/>
   <path class="fil20" d="M4730.3 2493.5c-21.58,138.94 9.67,259.71 15.71,406.49l64.94 -35.88c-5.37,-57.44 129.35,-127.6 143.12,-234.82 19.07,-148.43 -118.94,-168.26 -223.77,-135.79z"/>
   <path class="fil5" d="M5316.04 2479.4c27.17,-14.31 44.4,-27.27 64.83,-45.52 26.88,-74.23 86.64,-201.9 42.16,-287.12 -44.79,-85.8 -163.44,-93.03 -225.73,-0.37 -22.98,103.52 80.12,246 118.75,333z"/>
   <path class="fil2" d="M730.47 2544.39c82.44,3.64 120.18,21.84 139.57,82.15 37.23,31.62 93.26,160 199.58,86.15 41.24,-28.64 46.55,-62.08 36.85,-112.11 -6.51,-33.63 -11.06,-32.8 -24.78,-56.79 -22.47,-39.3 -9.63,-8.73 -35.15,-53.07 -120.12,-17.45 -121.67,-36.66 -284.42,-32.98l-104.21 53.55 72.56 33.1z"/>
   <path class="fil4" d="M4440.54 1294.48l-12.89 100.36c40.97,13.46 29.79,-43.08 33.72,45.03 40.88,-104.05 145.23,-190.42 230.88,-262.22 -4.17,-4.5 -11.37,-8.84 -14.22,-11.7l-22.19 -20.92c-17.26,-28.39 12.67,-38.97 28.58,-57.56l-32.48 -14.22c-81.19,-42.93 -19.76,-100.08 -218.67,-100.75 6.84,101.21 40.36,198.7 7.26,321.97z"/>
   <path class="fil21" d="M1332.93 1165.5c16.32,-29.97 14.58,-31.76 43.46,-39.48 41.07,-260.27 -255.44,-295.09 -329.89,147.45l286.44 -107.97z"/>
   <path class="fil5" d="M5553.05 2215.61c30.19,-21.59 23.72,-36.45 55.2,-84.7 16.06,-93.32 24.76,-138.29 3.26,-231.95 -86.83,-92.79 -259.4,-101.98 -240.7,51.8 7.35,60.47 145.57,234.8 182.24,264.85z"/>
   <path class="fil2" d="M5917.7 2721.95c36.86,4.43 77.23,13.17 129.74,-0.9 25.7,-28.74 24.71,-31.74 50.87,-65.73 7.45,-9.68 18.88,-24.93 27.24,-33.6 28.13,-29.18 -0.33,-6.39 35.91,-30.98 11,-18.55 -37,-3.15 45.08,-39.23 38.07,-16.73 40.5,-12.04 78.04,-15.61l56.88 -14.32 -44.47 -39.47c-219.42,-75.49 -457.14,-13.23 -379.29,239.84z"/>
   <path class="fil25" d="M5731.49 1906.53c3.09,7 17.13,46.4 20.21,50.4 -27.65,51.98 -43.23,80.39 -69.73,128.8 -59.23,108.2 -40.02,113.88 -73.72,45.18 -31.49,48.25 -25.01,63.11 -55.2,84.7 13.66,68.99 -24.18,83.69 -68.91,134.94 -20.75,23.77 -31.75,45.76 -51.71,67.13 -58.06,62.17 -35.77,41.66 -51.57,16.2 -20.43,18.25 -37.66,31.21 -64.83,45.52l5.03 53.94c-63.65,32.68 -104.67,93.12 -164.35,129.35 -58.69,35.64 -29.6,24.91 -44.81,6.02 -24.83,16.76 -28.45,19.56 -58.14,30.93l-13.7 41.13c49.67,-2.16 41.01,-14.71 31.76,32.53l32.12 0 64.08 -49.95c50.74,-61.13 52.1,-46.69 99.48,-87.48 63.97,-55.06 38.78,-55.61 121.65,-84.18l15.06 -33.19c32.61,-43.86 65.65,-79.9 106.02,-123.51 18.37,-19.84 37.55,-41.66 54.54,-61.21 58.83,-67.72 -1.75,-29.29 66.82,-49.26l56.42 -73.39c-22.28,-37.42 7.55,-62.73 42.41,-118.07 22.67,-36 40.76,-69.55 57.81,-116.65l-1.34 -22.09 -12.67 -36.7 -1.57 -31.17c-41.61,10.53 -24.9,-7.64 -41.16,20.08z"/>
   <path class="fil26" d="M6234.81 3326.33c-53.02,28.54 -105.15,75.2 -62.03,175.3 25.09,58.24 105.9,108.59 196.64,63.35 141.69,-70.64 54.61,-340.47 -134.61,-238.65z"/>
   <path class="fil6" d="M547.51 1841.45c43.84,-283.26 -104.35,-543.33 -265.66,-638.9 51.86,124.29 78.14,172.07 107.32,331.23 25.38,138.4 71.88,251.66 158.34,307.67z"/>
   <path class="fil25" d="M1341.73 2228.43l31.35 53.08c45.39,23.39 207.81,193.91 185.5,217.16l52.37 58.99c66.49,9.65 162.62,112.82 238.77,159.33 13.38,19.39 35.45,39.41 50.86,56.24l29.95 6.5c-13.91,-54.87 -23.57,-41.29 33.87,-36.5l-8.41 -64.13c-5.1,3.93 -16.24,11.72 -19.22,11.72 -1.7,0.01 -9.09,0.92 -11,0.78 -3.36,-0.25 -19.07,-5.97 -24.95,-8.58 -60.95,-20.91 -74.5,-40.03 -124.93,-79.82 -58.15,-45.88 -79.38,-39.18 -100.81,-110.2 -25.5,-33.2 -4.33,-9.6 -28.97,-47.25 -3,-4.59 -18.57,-19.52 -20.54,-28.84 -1.98,-9.35 -7.48,-10.54 -11.62,-15.49 -15.99,24.7 28.27,88.09 -59.6,2.66 -1.29,-1.25 -37.73,-50.99 -43.14,-58.1 -41.72,-54.73 -62.49,-53.75 -64.6,-119.86 -1.77,-2.71 -25.23,-36.66 -26.43,-38.35 -2.33,-3.27 -8.91,-5.81 -10.73,-14.29 -1.9,-8.85 -7.59,-9.85 -11.33,-14.83 -19.31,43.61 10.74,44.99 -34.53,-8.35 -14.2,-16.73 -25.15,-39.36 -38.91,-61.08 -31.91,-50.37 -51.82,-88.13 -76.67,-136.5l-41.17 2.81 1.41 16.55c32.49,73.2 144.21,213.55 133.49,256.37z"/>
   <path class="fil7" d="M6453.86 1835.74c94.98,-37.89 136.31,-179.34 162.13,-309.4 34.23,-172.41 53.66,-203 110.85,-333.79 -163.37,121.1 -300.52,319.73 -272.98,643.18z"/>
   <path class="fil26" d="M569.4 3483.3c14.76,59.17 87.86,110.85 166.18,94.77 69.52,-14.27 120.01,-82.02 102.79,-168.72 -33.32,-167.78 -316.81,-117.88 -268.97,73.94z"/>
   <path class="fil23" d="M2766.29 1684.61c-0.63,-133.1 0.74,-172.73 77.45,-233.98 89.57,-71.52 91.09,-92.52 44.87,-188.36 -283.57,-46.55 -246.37,295.53 -122.32,422.34z"/>
   <path class="fil23" d="M4263.38 1683c109.3,-114.12 136.75,-432.93 -62.9,-429.99 -127.12,1.87 -109.07,119.72 -37.38,181.54 98.84,85.25 90.15,77.41 100.28,248.45z"/>
   <path class="fil27" d="M5902.43 3642.36c36.31,96.94 14.79,-58.95 58,144.16 127.37,-40.77 93.59,8.26 113.48,25.24l-0.21 57.99c-52.29,18.32 -78.66,-0.13 -93.94,-0.13 0.2,-0.08 36.26,-76.98 24.57,22.15l-9.45 26.14c-22.78,39.71 -14.75,18.66 -32.32,33.3l-115.35 34.33c27.61,19.5 46.37,56.04 109.93,50.3 52.37,-4.74 81.72,-38.89 104.97,-84.16 37.49,-73 58.35,-183.21 94.42,-255.95l9.64 -81.03c-119.38,58.83 -110.26,132.74 -199.48,154.02l170.55 -187.25c-84.56,2.63 -177.34,17.86 -234.8,60.88z"/>
   <path class="fil28" d="M4810.95 2864.1l-64.94 35.88 -252.44 84.86 -81.97 14.37c-37.09,17.19 -78.04,26.9 -122.26,34.31 -8.14,1.36 -58.45,6.56 -67.74,4.75 -61.31,-11.94 -11.94,25 -46.65,-29.3 -38.84,29.35 -31.67,-66.08 -31.67,66.46l80.99 9.51 221.42 -4.65 6.59 -32.3 329.03 -106.52 84.42 -19.31 -53.36 -6.91 259.46 -141.96c9.25,-47.23 17.91,-34.69 -31.76,-32.53l-229.11 123.32z"/>
   <path class="fil2" d="M5163.08 4145.19c59.12,-3.31 199.12,-14.19 246.01,-33.89 70.12,-29.48 94.65,-123.45 42.05,-176.89 -119.68,-121.63 -256.84,121.69 -288.06,210.78z"/>
   <path class="fil2" d="M1552.47 4101.48c76.56,3.59 179.13,41.85 277.96,39.84 -18.6,-85.3 -94.75,-168.9 -154.77,-231.38l-97.53 0.82c-46.97,75.9 -73.38,76.44 -25.66,190.72z"/>
   <path class="fil28" d="M2174.05 2924.46c72.07,40.24 4.7,-2.06 36.32,31.37 59.25,-23.95 91.32,5.29 166.03,31.85 67.6,24.03 120.92,27.69 159.1,65.47l21.95 15.95c55.75,-28.5 29.23,-18.23 109.29,-6.04 0.1,0.02 63.94,10.75 66.28,11.62 56.41,21.26 27.08,-0.1 56.26,41.42 4.72,-4.04 10.63,-17.32 13.51,-12.86l28.03 -20.21c5.1,-2.37 38.01,-11.43 50.32,-13.56 -1.42,-121.89 5.6,-13.69 -29.96,-55.57 -35.54,38.84 54.63,32.01 -80.15,28.38 -6.01,-0.16 -61.19,-11.2 -72.15,-13.28 -82.13,-15.57 -76.92,-1.52 -114.8,-50.15l-29.55 4.14c-74.67,21.79 -215.28,-56.29 -296.48,-79.64l-35.72 -28.46c-97.19,-30.71 -172.82,-79.96 -257.92,-131.65 -57.44,-4.79 -47.78,-18.37 -33.87,36.5 57.3,24.69 82.5,43.79 137.07,73.87 26.24,14.46 42.64,20.77 65.99,32.57 89.81,45.39 49.28,21.18 40.46,38.29z"/>
   <path class="fil29" d="M582.45 3058.33c24.77,78.89 31.52,104.36 92.93,157.5 3.95,3.42 10.56,7.91 16.03,11.58l-0.14 -239.66c64.2,24.41 5.53,54.7 33.7,238.56 65.89,-51.33 109.81,-155.2 133.22,-245.26 -128.24,21.72 1.73,-40.25 -102.88,68.77 -14.74,-99.97 1.9,-96.39 -97.61,-87.09l-17.44 110.98 -57.82 -15.37z"/>
   <path class="fil20" d="M4471.14 222.1l39.17 -4.41c105.99,-90.24 46.61,-224.24 -70.16,-203.52 -99.76,17.69 -144.67,188.21 31,207.93z"/>
   <path class="fil20" d="M4844.42 215.8l34.98 3.09c160.33,-6.27 155.3,-159.81 61.71,-199.96 -54.78,-23.5 -111.95,-0.51 -131.82,35.3 -40.44,72.89 12.32,126.36 35.13,161.58z"/>
   <path class="fil20" d="M5149.64 444.4l3.25 24.05c51.99,16.21 80.57,28.27 147.69,15.27l33.67 -39.39 10.06 -111.61c-90.22,-81.78 -236.95,-73.17 -194.67,111.68z"/>
   <path class="fil20" d="M2516.11 217.05l39.1 4.8 88.66 -15.45c124,-306.48 -338.45,-207.37 -127.75,10.65z"/>
   <path class="fil20" d="M1862.02 471.43l20 -35.24 -9.64 -128.79c-71.27,-24.41 -106,-24.18 -172.96,-0.66 -52.34,146.6 18.36,221.47 162.6,164.68z"/>
   <path class="fil20" d="M2148.56 219.33l31.46 -2.63c45,-62.22 76.6,-71.75 33.25,-151.82 -75.2,-127.89 -235.1,-28.22 -163.29,137.75l98.57 16.7z"/>
   <path class="fil30" d="M1266.87 662.31l187.74 -38.55c-0.67,-15.51 -0.2,-45.44 -2.21,-59.32l-18.55 -73.29c-67.43,-27.2 -87.32,-20.9 -166.97,-19.96l0 191.11z"/>
   <path class="fil31" d="M3499.55 1365.14c22.86,-22.04 11.03,-2.93 33.46,-36.47 7.32,-10.94 15.14,-26.88 20.85,-39.06 3.61,-7.71 30.26,-81.01 31.58,-89.28 15.24,-95.2 -29.59,-119.3 -116.75,-108.12 -72.71,106.11 -0.05,150.69 30.86,272.94z"/>
   <path class="fil7" d="M2636.21 3925.45c131.86,-73.58 259.56,-124.81 332.73,-244.42 -199.53,19.79 -282.25,88.81 -332.73,244.42z"/>
   <path class="fil7" d="M4369.65 3925.22c-61.96,-139.51 -135.02,-230.29 -333.27,-240.68 84.53,137.04 181.83,153.94 333.27,240.68z"/>
   <path class="fil32" d="M2466.68 830.31c-137.82,-50.29 -197.67,52.89 -139.79,120.66 63.39,74.22 182.07,37.81 139.79,-120.66z"/>
   <path class="fil33" d="M3566.67 1355.85c109.3,-24.31 240.3,-72.03 180.31,-181.97 -127.09,-52.64 -150.62,82.54 -180.31,181.97z"/>
   <path class="fil31" d="M3459.96 1353.28l-80.35 -192.03 -87.24 -0.12c-80.81,119.18 52.19,176.1 167.59,192.15z"/>
   <path class="fil34" d="M4560.89 822.35c-29.2,108.24 0.55,167.27 124.88,148.32 37.92,-67.74 34.33,-84.74 -3.86,-149.35l-121.02 1.02z"/>
   <path class="fil35" d="M1946.71 3529.37c0.02,-0.11 67.06,-76.36 -6.94,-124.41 -45.39,-29.48 -89.49,-1.36 -119.28,13.83 -5.15,51.9 -20.1,94.95 26.96,122.4 50.28,29.31 78.9,-1 99.26,-11.82z"/>
   <path class="fil35" d="M5109.85 3391.97c-82.72,28.3 -93.38,64.42 -53.65,152.16l109.24 -5.92c40.36,-85 32.85,-117.99 -55.59,-146.23z"/>
   <path class="fil36" d="M3842.11 2459.22c59.05,2.95 7.78,8.22 46.55,0.23 40.06,-8.26 30.08,-2.71 41.38,-15.3 35.66,-79.32 79.29,-108.47 113.95,-182.81 -11.97,-30.19 18.59,-29.04 -35.22,-17.75 -43.66,50.78 -46.68,62.4 -86.53,110.96 -29.96,36.52 -45.47,56.95 -80.13,104.67z"/>
   <path class="fil36" d="M2982.23 2263.89c18.11,45.74 28.03,56.26 61.78,96.5 114.46,136.47 35.74,81.66 35.24,82.13l106.22 16.02 -37.39 -47.47c-2.7,-3.22 -6.72,-7.08 -9.39,-10.3 -20.17,-24.29 -22.84,-30.61 -41.65,-55.16 -39.77,-51.89 -41.41,-55.54 -72.15,-103.79l-37.22 -10.09 -5.43 32.15z"/>
   <path class="fil37" d="M4351.56 1049.74l55.87 7.63 11.63 -231.56c-41.33,45.1 -7.16,-46.13 -37.92,55.68 -3.83,12.65 -2.99,38.36 -3.98,51.87 -4.12,56.25 -7.54,81.82 -25.59,116.38z"/>
   <path class="fil38" d="M2470.22 411.79c64.02,6.9 21.82,8.91 44.31,-24.52l40.68 -165.41 -39.1 -4.8 -45.9 194.73z"/>
   <path class="fil38" d="M4512.47 385.33c20.73,36.69 5.17,9.9 44.1,29.49l-46.27 -197.14 -39.17 4.41 41.33 163.24z"/>
   <path class="fil38" d="M1862.02 471.43l135.85 97.24 42.29 -1.6c-22.3,-26.73 6.62,0.42 -30.32,-33.15 -1.63,-1.48 -42.24,-33.6 -43.57,-34.55 -37.32,-26.74 -48.88,-27.49 -84.25,-63.17l-20 35.24z"/>
   <path class="fil38" d="M4986.75 566.86l42.93 0.48 123.2 -98.89 -3.25 -24.05c-49.94,23.26 -45.19,23.65 -87.42,53.88 -20.76,14.86 -17.02,8.98 -34.43,23.4 -51.65,42.81 -15.42,7.06 -41.04,45.17z"/>
   <polygon class="fil38" points="4806.52,336.02 4841.83,340.16 4879.4,218.89 4844.42,215.8 "/>
   <path class="fil39" d="M6284.59 2535.9l139.85 -2.72c-5.39,-3.44 -12.18,-7.6 -16.22,-10.25l-103.52 -65.06 -7.7 24.24 44.47 39.47 -56.88 14.32z"/>
   <polygon class="fil38" points="2188.22,334.82 2217.4,335.17 2180.03,216.7 2148.56,219.33 "/>
   <path class="fil40" d="M5998.5 1293.58l84.73 -33.74 -38.97 -9.88 -6.51 -39.09 -15.97 -12.15c-19.5,33.93 -2.52,-33 -18.76,43.38 -1.42,6.66 -3.85,41.84 -4.52,51.48z"/>
   <path class="fil41" d="M1237.48 3004.71c-40.95,-38.8 -34.05,-18.01 -57.99,-40.25 -24.07,-22.35 -2.7,-14.86 -40,-52.14l9.32 86.17 88.68 6.22z"/>
   <path class="fil41" d="M173.18 2998.11l85.95 2.23 -3.86 -83.22c-2.46,4.48 -4.98,6.9 -6.3,13.98 -1.29,6.89 -4.94,10.74 -6.87,13.27l-54.5 47.18c-3.03,1.81 -9.8,4.02 -14.43,6.57z"/>
   <path class="fil42" d="M6837.84 2997.51c-4.94,-3.32 -12.73,-13.51 -15.3,-9.18l-41.01 -25.4c-0.76,-0.55 -32.85,-31.73 -33.37,-32.28l-0.56 69.22 90.24 -2.37z"/>
   <path class="fil43" d="M257.83 3964.08l3.47 -76.29 -86.34 4.12c87.64,46.86 34.33,-6.99 82.87,72.17z"/>
   <path class="fil43" d="M1142.63 3979.64c45.8,-46.49 23.72,0.37 29.62,-77.92l45.05 4.11 7.37 -15.79 -65.44 -3.81 -16.61 93.42z"/>
  </g>
 </g>
</svg>
