<?xml version="1.0" standalone="no"?>
<!DOCTYPE svg PUBLIC "-//W3C//DTD SVG 20010904//EN"
 "http://www.w3.org/TR/2001/REC-SVG-20010904/DTD/svg10.dtd">
<svg version="1.0" xmlns="http://www.w3.org/2000/svg"
 width="640.000000pt" height="585.000000pt" viewBox="0 0 640.000000 585.000000"
 preserveAspectRatio="xMidYMid meet">

<g transform="translate(0.000000,585.000000) scale(0.100000,-0.100000)"
fill="#000000" stroke="none">
<path d="M1476 5840 c-589 -68 -1069 -401 -1310 -910 -135 -285 -181 -561
-158 -951 41 -713 223 -1162 678 -1679 214 -244 455 -467 1159 -1080 625 -543
935 -821 1242 -1112 57 -54 108 -98 113 -98 5 0 56 44 112 98 303 286 689 631
1323 1182 606 526 881 783 1079 1010 458 523 637 966 678 1679 23 399 -25 676
-167 966 -227 465 -653 783 -1174 877 -158 28 -431 30 -581 4 -215 -37 -469
-139 -653 -260 -219 -144 -463 -396 -583 -602 -14 -24 -29 -44 -33 -44 -5 0
-22 23 -40 51 -106 170 -303 389 -462 512 -220 170 -485 290 -749 338 -122 23
-359 32 -474 19z"/>
</g>
</svg>
